<svg width="20" height="20" viewBox="0 0 20 20" fill="none" xmlns="http://www.w3.org/2000/svg">
<path d="M9.9995 1.66675C6.42492 1.66675 3.38492 3.92175 2.20117 7.08341H17.7974C16.6141 3.92175 13.5741 1.66675 9.9995 1.66675Z" fill="#455A64"/>
<path d="M18.3327 9.99992C18.3327 8.972 18.1377 7.99242 17.7977 7.08325H2.20102C1.86102 7.99242 1.66602 8.972 1.66602 9.99992C1.66602 11.0278 1.86102 12.0074 2.20102 12.9166H17.7973C18.1377 12.0074 18.3327 11.0278 18.3327 9.99992Z" fill="#FF3D00"/>
<path d="M17.7978 12.9167H2.20117C3.38492 16.0784 6.42492 18.3334 9.99951 18.3334C13.5741 18.3334 16.6141 16.0784 17.7978 12.9167Z" fill="#FFC107"/>
</svg>
