<svg width="24" height="24" viewBox="0 0 24 24" fill="none" xmlns="http://www.w3.org/2000/svg">
<path d="M12.2228 11.641L11.9998 11.861L11.7758 11.641C11.3596 11.23 10.7982 10.9996 10.2133 10.9996C9.62838 10.9996 9.06702 11.23 8.65079 11.641C8.44421 11.8397 8.27987 12.0781 8.16761 12.3418C8.05536 12.6056 7.9975 12.8893 7.9975 13.176C7.9975 13.4626 8.05536 13.7463 8.16761 14.0101C8.27987 14.2738 8.44421 14.5122 8.65079 14.711L11.9998 18L15.3488 14.711C15.5554 14.5122 15.7197 14.2738 15.832 14.0101C15.9442 13.7463 16.0021 13.4626 16.0021 13.176C16.0021 12.8893 15.9442 12.6056 15.832 12.3418C15.7197 12.0781 15.5554 11.8397 15.3488 11.641C14.9324 11.23 14.3709 10.9995 13.7858 10.9995C13.2007 10.9995 12.6392 11.23 12.2228 11.641Z" fill="black"/>
<path d="M21.7068 11.293L12.7068 2.29296C12.614 2.20001 12.5038 2.12627 12.3825 2.07596C12.2612 2.02565 12.1311 1.99976 11.9998 1.99976C11.8685 1.99976 11.7384 2.02565 11.6171 2.07596C11.4958 2.12627 11.3856 2.20001 11.2928 2.29296L2.29279 11.293C2.15298 11.4328 2.05777 11.611 2.0192 11.8049C1.98064 11.9989 2.00044 12.1999 2.07611 12.3826C2.15178 12.5653 2.27992 12.7215 2.44433 12.8314C2.60874 12.9412 2.80204 12.9999 2.99979 13H3.99979V20C3.99979 21.103 4.89679 22 5.99979 22H17.9998C19.1028 22 19.9998 21.103 19.9998 20V13H20.9998C21.1975 12.9999 21.3908 12.9412 21.5552 12.8314C21.7197 12.7215 21.8478 12.5653 21.9235 12.3826C21.9991 12.1999 22.0189 11.9989 21.9804 11.8049C21.9418 11.611 21.8466 11.4328 21.7068 11.293ZM18.0008 20H5.99979V10.415L11.9998 4.41496L17.9998 10.415L18.0008 20Z" fill="black"/>
</svg>
